<svg width="522" height="522" viewBox="0 0 522 522" fill="none" xmlns="http://www.w3.org/2000/svg">
<path d="M373.348 4.34517C375.301 2.26627 378.231 3.12229 380.673 3.24458C380.673 5.56806 382.016 8.99214 379.452 10.4596C371.639 16.4517 363.948 22.8107 356.136 28.6806C351.741 31.3709 347.712 24.5228 351.497 21.5878C358.699 15.718 366.146 10.215 373.348 4.34517Z" fill="black"/>
<path d="M376.278 34.4281C391.659 30.3926 406.797 25.5011 422.178 21.5878C424.376 23.4222 425.23 25.9902 425.352 28.6806C416.196 33.083 406.186 34.5504 396.664 37.7299C389.096 39.5642 381.771 42.4992 374.081 43.9666C371.029 45.0672 367.489 41.3986 369.198 38.4636C370.174 35.5287 373.836 35.4064 376.278 34.4281Z" fill="black"/>
<path d="M167.896 44.5781C183.644 37.7299 201.1 37.7299 217.703 34.5504C223.806 33.6944 230.032 34.1836 236.136 34.1836C259.086 34.1836 282.036 33.2052 304.864 36.0179C317.804 37.2408 330.866 38.8305 343.44 42.6215C348.445 44.2112 353.328 47.0238 356.38 51.5485C357.6 53.1383 358.211 55.4617 357.112 57.4184C353.45 63.5328 346.248 66.1008 339.655 68.0574C320.612 73.4381 300.836 73.5604 281.304 75.517C261.283 75.3948 241.019 76.6176 221.121 74.2942C207.082 73.6827 193.165 71.8484 179.493 68.7912C171.314 66.8346 162.036 63.7774 158.13 55.584C157.886 49.7142 163.379 46.5347 167.896 44.5781ZM205.495 47.6353C192.921 49.5919 179.859 50.3256 167.896 55.3395C205.251 65.0002 244.193 65.0002 282.524 64.3888C300.836 62.9213 319.269 61.6985 337.336 58.2744C341.242 57.4184 344.783 55.8286 348.445 54.2389C328.425 49.3473 308.038 46.7793 287.407 46.0455C267.509 45.9232 247.489 45.801 227.591 46.0455C220.266 45.9232 212.942 47.1461 205.495 47.6353Z" fill="black"/>
<path d="M127.367 68.302C131.64 67.2014 135.79 64.8779 140.307 65.6117C141.528 66.8346 142.504 68.0574 143.481 69.4026C140.917 71.8484 137.866 73.9273 134.692 75.517C122.484 78.452 110.521 82.3652 98.4353 85.5447C94.7731 86.2784 90.3783 89.2134 87.0823 86.0339C86.594 84.1995 86.594 82.3652 86.4719 80.5309C99.7781 75.517 113.817 72.7044 127.367 68.302Z" fill="black"/>
<path d="M150.073 85.0555C152.759 82.4875 156.299 81.5092 159.839 80.6532C160.327 82.4875 160.816 84.1995 161.182 86.0339C158.74 89.4579 154.956 91.6591 151.782 94.2272C145.434 98.7518 140.185 104.989 132.372 107.067C131.396 105.233 130.663 103.277 130.053 101.32C136.401 95.5724 143.481 90.6808 150.073 85.0555Z" fill="black"/>
<path d="M181.446 135.194C189.869 126.144 200.612 118.44 213.308 116.973C222.586 116.851 232.474 115.628 241.019 120.152C255.668 127.123 263.847 142.531 268.242 157.45C271.66 152.559 274.467 147.178 278.862 143.02C286.553 135.438 297.906 132.503 308.404 132.748C319.269 133.359 328.425 139.963 337.336 145.588C341.731 138.129 345.515 129.079 353.938 125.166C360.164 121.742 367.611 122.965 374.325 122.843C386.044 122.476 397.519 125.533 408.384 129.691C431.456 139.841 452.697 156.472 464.172 179.34C471.741 193.281 476.868 209.056 476.257 225.076C476.624 235.47 474.304 245.743 471.13 255.526C467.956 264.33 464.782 273.257 459.777 281.206C447.326 301.873 430.723 320.339 410.703 334.035C400.205 340.516 388.241 347.364 375.423 345.041C366.512 343.329 361.263 335.38 354.427 330.244C351.253 331.589 348.933 334.279 346.247 336.358C338.801 342.84 328.058 345.775 318.536 342.962C309.747 341.494 302.423 335.869 296.075 330.122C291.436 336.97 284.966 343.206 276.543 344.918C265.068 347.12 252.616 344.796 242.972 338.193C238.455 335.135 234.671 331.1 231.131 327.187C229.666 331.834 228.201 336.97 224.173 340.149C218.313 344.674 210.5 345.652 203.42 345.652C173.756 345.775 143.969 345.53 114.305 345.652C106.858 345.652 98.9236 345.163 92.2095 341.617C88.0589 339.538 85.7395 335.135 85.6174 330.611C85.007 314.591 86.2278 298.571 84.6408 282.674C84.3967 249.289 84.5187 215.782 84.3967 182.397C84.3967 176.283 84.6408 170.168 83.6642 164.176C82.4435 154.026 83.6642 143.02 89.4017 134.216C95.0172 127.612 104.417 126.267 112.596 125.533C124.437 125.288 136.401 125.288 148.242 125.655C159.473 127 171.07 129.691 181.446 135.194ZM191.334 140.452C196.706 144.977 201.955 149.868 205.251 156.105C210.378 165.154 211.233 176.038 209.401 186.066C205.861 203.308 194.752 217.983 182.057 229.723C180.836 231.068 178.639 232.291 179.005 234.492C182.911 238.038 187.55 240.729 191.334 244.397C207.814 259.806 217.703 280.472 224.905 301.384C228.689 290.989 231.253 280.106 231.375 268.977C233.084 281.451 234.183 294.046 238.455 305.908C241.873 315.325 246.878 325.108 255.668 330.366C262.626 335.013 272.026 334.524 279.106 330.488C285.942 326.208 289.971 318.626 292.412 311.167C297.418 296.003 298.638 279.861 300.836 264.208C301.202 279.739 300.714 295.514 304.986 310.555C306.817 317.159 309.747 324.007 315.607 327.92C321.955 331.834 330.378 330.733 336.604 327.064C345.027 321.439 349.299 311.778 352.473 302.484C360.408 279.372 361.019 254.67 359.92 230.579C358.211 210.279 352.962 189.979 342.707 172.247C337.092 162.831 330.134 153.659 320.49 148.034C311.944 143.02 300.591 142.531 292.168 148.156C284.722 152.926 280.449 160.997 277.763 169.19C270.561 190.957 271.293 214.192 267.753 236.571C264.213 210.401 262.382 183.987 255.912 158.306C253.226 147.423 247.977 136.05 237.479 130.914C230.765 127 222.708 127.245 215.139 127.857C206.105 128.957 197.804 133.971 191.334 140.452ZM361.263 134.46C354.304 136.417 351.253 143.754 348.445 149.624C347.346 152.559 344.905 156.105 347.468 158.918C362.85 180.807 369.808 207.466 371.395 233.881C372.616 245.865 371.395 257.849 370.907 269.833C369.686 282.796 367.977 295.759 363.948 308.11C362.972 311.411 361.263 314.469 360.774 317.893C363.46 323.763 367.122 329.632 372.738 333.179C377.255 336.114 382.87 334.402 387.631 332.812C403.012 326.82 415.464 315.447 426.451 303.463C443.419 283.897 457.824 261.151 463.317 235.593C466.98 219.817 464.05 203.186 456.603 189.001C445.494 167.967 426.451 151.825 405.088 141.797C391.659 135.683 376.278 131.281 361.263 134.46ZM103.807 140.33C96.6042 145.221 95.1393 154.638 95.1393 162.709C95.1393 190.835 95.5055 219.084 95.6276 247.21C96.4821 273.624 95.8717 300.161 96.4821 326.575C96.4821 330.244 99.1677 334.402 103.074 334.524C111.253 334.891 119.432 334.524 127.611 334.646C131.273 334.524 135.546 335.135 138.72 332.812C140.795 330.978 140.673 328.043 140.917 325.475C140.917 305.052 140.917 284.63 140.917 264.33C140.917 261.64 141.284 258.461 143.969 257.115C147.387 255.036 152.515 257.849 152.27 261.885C152.515 281.084 152.27 300.283 152.392 319.482C152.515 322.662 152.637 325.841 153.979 328.776C155.688 333.179 161.06 334.891 165.454 334.646C178.15 334.646 190.846 334.769 203.42 334.524C207.692 334.157 212.575 333.913 215.627 330.488C218.435 326.331 216.97 321.072 215.871 316.548C211.721 301.628 206.838 286.709 199.513 273.013C193.654 262.251 185.841 252.591 176.441 244.887C172.047 241.218 166.919 238.528 162.158 235.348C165.21 231.068 169.849 228.378 173.633 224.831C183.033 216.76 191.212 206.488 193.898 194.137C196.828 176.894 189.137 158.673 175.22 148.279C161.182 138.251 143.237 136.172 126.513 136.539C118.822 136.906 110.521 136.294 103.807 140.33Z" fill="black"/>
<path d="M136.645 170.902C140.673 169.679 146.045 172.003 146.533 176.527C147.021 184.109 146.777 191.813 146.655 199.395C146.045 205.51 137.377 207.711 133.349 203.308C130.419 200.374 131.029 195.971 130.907 192.18C131.151 186.922 130.419 181.663 131.396 176.405C131.884 173.837 134.081 171.513 136.645 170.902Z" fill="black"/>
<path d="M399.35 188.267C402.646 187.289 406.553 187.778 408.872 190.59C410.703 192.18 410.215 194.993 410.459 197.194C410.459 217.616 410.459 238.038 410.459 258.338C410.337 260.539 410.581 263.23 408.872 264.942C405.698 269.222 397.763 268.488 395.688 263.474C394.467 260.295 394.711 256.748 394.711 253.324C394.711 234.981 394.711 216.516 394.711 198.172C394.589 194.381 395.444 189.979 399.35 188.267Z" fill="black"/>
<path d="M76.828 361.427C80.002 361.305 83.1759 361.305 86.2278 361.427C139.452 361.794 192.677 361.427 245.902 361.55C315.363 361.427 384.701 361.794 454.04 361.427C460.143 361.305 466.247 361.305 472.351 361.55C472.473 392.489 472.473 423.428 472.351 454.244C464.538 454.611 456.603 454.244 448.79 454.367C448.302 466.229 449.523 478.091 447.936 489.83C445.861 490.442 443.785 491.053 441.71 491.542C441.71 497.779 441.832 503.893 441.71 510.13C441.71 513.921 436.949 515.389 434.019 513.799C431.578 512.943 431.456 509.886 431.09 507.684C430.968 493.01 431.212 478.213 431.09 463.538C430.968 460.114 431.334 456.69 429.869 453.511C428.526 460.359 429.991 467.451 429.014 474.3C427.183 478.213 419.981 477.601 419.126 473.199C418.638 466.962 418.882 460.603 418.516 454.367C399.228 453.877 379.94 454.367 360.53 454.122C349.177 454.367 337.824 453.755 326.471 454.611C294.732 453.755 262.87 454.489 231.131 454.244C225.393 454.122 219.656 454.489 213.796 454.611C202.077 453.511 190.358 454.367 178.639 454.122C151.172 454.244 123.827 454.122 96.36 454.244C95.9938 466.595 97.2145 478.947 96.2379 491.175C94.1627 492.031 92.2095 492.643 90.1342 493.377C90.2563 500.225 90.2563 507.073 90.0121 513.921C87.3265 515.266 83.9084 516.978 81.3448 514.777C79.1475 513.554 79.5137 510.986 79.3916 508.907C79.1475 492.521 79.0254 476.134 79.0254 459.747C79.5137 455.834 76.2176 452.777 76.7059 448.864C76.828 419.881 76.706 390.654 76.828 361.427ZM204.274 369.009C199.147 395.179 193.41 421.104 187.916 447.152C195.851 447.274 203.908 447.396 211.843 447.152C216.238 420.982 223.196 395.179 227.591 369.009C219.778 369.009 211.965 368.887 204.274 369.009ZM249.564 375.735C233.328 385.885 226.614 407.163 230.765 425.384C233.084 435.045 240.409 443.361 249.93 446.173C261.039 449.597 273.491 449.597 284.233 445.195C285.943 438.225 287.285 431.254 288.75 424.161C282.891 426.485 276.665 428.564 270.317 428.075C263.847 428.441 256.889 424.528 255.18 417.925C254.325 412.055 254.447 405.818 257.255 400.56C260.795 392.244 270.073 387.719 278.862 388.209C284.844 387.842 290.581 389.676 296.075 391.51C297.051 384.418 299.005 377.447 300.347 370.477C283.623 366.074 264.824 366.564 249.564 375.735ZM355.891 368.887C347.468 380.994 338.679 392.733 330.378 404.84C331.965 392.733 335.261 380.871 337.458 368.887C329.645 368.765 321.71 368.765 313.898 368.887C308.648 395.057 302.911 421.104 297.54 447.152C305.352 447.152 313.165 447.152 320.978 447.152C323.542 434.923 325.983 422.572 328.913 410.465C332.819 422.694 336.97 434.923 340.876 447.152C350.276 447.152 359.798 447.396 369.198 447.029C364.193 433.333 358.333 420.004 353.45 406.307C363.338 393.589 373.592 381.238 383.969 368.887C374.447 368.765 365.169 369.009 355.891 368.887ZM404.111 368.765C394.223 370.354 384.945 377.325 382.26 387.353C381.283 394.323 381.161 402.272 386.044 407.897C391.171 413.889 399.106 415.846 405.332 420.37C408.628 422.694 407.041 426.729 406.186 429.909C396.298 433.455 385.922 429.175 377.621 423.672C376.644 430.276 374.447 436.513 374.081 443.238C385.434 447.885 398.251 450.209 410.459 447.396C419.981 445.806 429.503 439.325 431.7 429.42C432.555 423.55 432.921 416.946 429.625 411.688C425.962 404.84 418.272 401.783 411.924 397.869C409.238 396.28 405.942 393.956 406.553 390.41C406.919 386.986 410.337 385.641 413.267 385.151C420.713 384.785 427.794 387.475 434.264 390.777C435.362 384.418 437.315 378.303 437.56 371.822C426.695 368.765 415.342 366.197 404.111 368.765ZM127.367 369.009C122.118 395.179 116.38 421.104 111.009 447.274C118.822 447.396 126.513 447.274 134.325 447.274C137.133 435.045 139.575 422.694 142.26 410.465C146.289 422.694 150.317 434.923 154.224 447.274C163.745 447.274 173.145 447.396 182.667 447.152C177.662 433.455 171.924 420.004 166.797 406.307C176.807 393.712 187.062 381.483 197.194 369.009C187.794 368.765 178.516 368.887 169.239 368.887C160.938 380.871 152.637 392.856 143.847 404.351C145.8 392.489 148.974 380.749 150.928 368.765C142.993 369.009 135.18 368.887 127.367 369.009Z" fill="black"/>
<path d="M217.825 34.4281C230.643 31.0041 243.705 28.6806 257.011 28.6806C267.631 28.5583 278.13 28.5583 288.75 28.8029C301.812 29.292 314.63 32.3492 327.326 35.2841C346.614 41.154 365.535 48.369 382.626 59.2527C429.014 86.8899 463.928 132.87 478.821 184.721C483.216 199.518 485.535 214.804 487 230.09C486.878 243.541 487.854 257.115 485.901 270.445C482.239 302.607 470.886 333.668 454.162 361.305C384.823 361.794 315.363 361.305 246.024 361.427C192.799 361.305 139.575 361.55 86.3499 361.305C84.2746 357.147 81.9552 353.234 79.7578 349.199C65.2309 322.295 56.0753 292.334 54 261.762C53.8779 250.39 53.6338 238.894 54.1221 227.522C58.5168 168.579 88.5472 112.081 134.814 75.3948C137.988 73.805 141.039 71.8484 143.603 69.2803C147.998 65.2448 153.247 61.6984 158.984 59.0081C158.74 58.1521 158.374 56.3178 158.252 55.4617C162.158 63.6551 171.436 66.7123 179.615 68.6689C193.288 71.6038 207.326 73.4381 221.243 74.1719C241.263 76.4953 261.405 75.2725 281.426 75.3948C300.958 73.4381 320.734 73.3158 339.778 67.9352C346.248 65.9785 353.45 63.4105 357.234 57.2961C358.333 55.4617 357.845 53.1383 356.502 51.4262C353.45 47.0238 348.567 44.2112 343.562 42.4992C330.988 38.8305 318.048 37.1185 304.986 35.8956C282.158 33.083 259.208 34.0613 236.258 34.0613C230.032 34.1836 223.928 33.5721 217.825 34.4281ZM150.073 85.0555C143.481 90.6808 136.401 95.5724 130.053 101.32C130.663 103.277 131.396 105.233 132.372 107.067C140.185 105.111 145.434 98.7518 151.782 94.2272C155.078 91.6591 158.862 89.4579 161.182 86.0339C160.816 84.1995 160.327 82.3652 159.839 80.6532C156.299 81.3869 152.759 82.4875 150.073 85.0555ZM181.446 135.194C171.192 129.569 159.595 127 147.998 125.655C136.156 125.288 124.193 125.288 112.352 125.533C104.173 126.267 94.8951 127.612 89.1576 134.215C83.4201 142.898 82.1993 153.904 83.4201 164.176C84.2746 170.168 84.0305 176.283 84.1525 182.397C84.2746 215.782 84.2746 249.289 84.3967 282.674C86.1057 298.571 84.7629 314.713 85.3733 330.611C85.4954 335.135 87.8148 339.538 91.9653 341.617C98.6794 345.163 106.614 345.652 114.061 345.652C143.725 345.53 173.511 345.774 203.176 345.652C210.378 345.652 218.191 344.674 223.928 340.149C227.957 336.97 229.544 331.956 230.887 327.187C234.549 331.222 238.211 335.135 242.728 338.193C252.372 344.796 264.824 347.12 276.299 344.918C284.722 343.206 291.192 336.97 295.831 330.122C302.301 335.991 309.503 341.617 318.292 342.962C327.936 345.774 338.557 342.84 346.003 336.358C348.689 334.279 351.008 331.589 354.182 330.244C361.019 335.38 366.268 343.329 375.179 345.041C387.997 347.364 399.961 340.516 410.459 334.035C430.479 320.338 446.959 301.873 459.533 281.206C464.416 273.257 467.712 264.33 470.886 255.526C474.06 245.743 476.502 235.47 476.013 225.076C476.624 209.056 471.496 193.281 463.928 179.34C452.453 156.472 431.212 139.841 408.14 129.691C397.275 125.533 385.678 122.476 374.081 122.843C367.244 123.087 359.92 121.864 353.694 125.166C345.271 128.957 341.487 138.006 337.092 145.588C328.18 139.963 319.025 133.359 308.16 132.748C297.54 132.381 286.309 135.438 278.618 143.02C274.223 147.178 271.416 152.559 267.997 157.45C263.603 142.409 255.546 127.123 240.775 120.152C232.229 115.628 222.341 116.851 213.064 116.973C200.612 118.44 189.869 126.144 181.446 135.194Z" fill="#FC0101"/>
<path d="M205.495 47.6353C212.942 47.1461 220.266 45.9232 227.713 45.9232C247.611 45.6787 267.631 45.6787 287.529 45.9232C308.038 46.657 328.547 49.225 348.567 54.1166C344.905 55.7063 341.242 57.2961 337.458 58.1521C319.391 61.5762 300.958 62.799 282.646 64.2665C244.315 65.0002 205.373 64.8779 168.018 55.2172C179.859 50.3256 192.921 49.5919 205.495 47.6353Z" fill="#FC0101"/>
<path d="M214.04 454.856C219.778 454.733 225.515 454.367 231.375 454.489C263.114 454.733 294.976 454 326.716 454.856C315.363 458.891 303.155 460.114 291.314 461.826C277.397 462.438 263.481 462.315 249.686 461.948C237.601 460.114 225.393 458.891 214.04 454.856Z" fill="#FC0101"/>
</svg>
