<?xml version="1.0" encoding="utf-8"?>
<!-- Generator: Adobe Illustrator 27.0.0, SVG Export Plug-In . SVG Version: 6.00 Build 0)  -->
<svg version="1.1" id="Layer_1" xmlns="http://www.w3.org/2000/svg" xmlns:xlink="http://www.w3.org/1999/xlink" x="0px" y="0px"
	 viewBox="0 0 354.7 419.5"  xml:space="preserve">

<g id="_x23_2b2928ff">
	<path class="st0" d="M261.6,1.1c1.6-1.7,4-1,6-0.9c0,1.9,1.1,4.7-1,5.9c-6.4,4.9-12.7,10.1-19.1,14.9c-3.6,2.2-6.9-3.4-3.8-5.8
		C249.6,10.4,255.7,5.9,261.6,1.1z"/>
	<path class="st0" d="M264,25.7c12.6-3.3,25-7.3,37.6-10.5c1.8,1.5,2.5,3.6,2.6,5.8c-7.5,3.6-15.7,4.8-23.5,7.4
		c-6.2,1.5-12.2,3.9-18.5,5.1c-2.5,0.9-5.4-2.1-4-4.5C259,26.6,262,26.5,264,25.7z"/>
	<path class="st0" d="M93.3,34c12.9-5.6,27.2-5.6,40.8-8.2c5-0.7,10.1-0.3,15.1-0.3c18.8,0,37.6-0.8,56.3,1.5
		c10.6,1,21.3,2.3,31.6,5.4c4.1,1.3,8.1,3.6,10.6,7.3c1,1.3,1.5,3.2,0.6,4.8c-3,5-8.9,7.1-14.3,8.7c-15.6,4.4-31.8,4.5-47.8,6.1
		c-16.4-0.1-33,0.9-49.3-1c-11.5-0.5-22.9-2-34.1-4.5c-6.7-1.6-14.3-4.1-17.5-10.8C85.1,38.2,89.6,35.6,93.3,34 M124.1,36.5
		c-10.3,1.6-21,2.2-30.8,6.3c30.6,7.9,62.5,7.9,93.9,7.4c15-1.2,30.1-2.2,44.9-5c3.2-0.7,6.1-2,9.1-3.3c-16.4-4-33.1-6.1-50-6.7
		c-16.3-0.1-32.7-0.2-49,0C136.2,35.1,130.2,36.1,124.1,36.5z"/>
	<path class="st0" d="M60.1,53.4c3.5-0.9,6.9-2.8,10.6-2.2c1,1,1.8,2,2.6,3.1c-2.1,2-4.6,3.7-7.2,5c-10,2.4-19.8,5.6-29.7,8.2
		c-3,0.6-6.6,3-9.3,0.4c-0.4-1.5-0.4-3-0.5-4.5C37.5,59.3,49,57,60.1,53.4z"/>
	<path class="st0" d="M78.7,67.1c2.2-2.1,5.1-2.9,8-3.6c0.4,1.5,0.8,2.9,1.1,4.4c-2,2.8-5.1,4.6-7.7,6.7c-5.2,3.7-9.5,8.8-15.9,10.5
		c-0.8-1.5-1.4-3.1-1.9-4.7C67.5,75.7,73.3,71.7,78.7,67.1z"/>
	<path class="st0" d="M104.4,108.1c6.9-7.4,15.7-13.7,26.1-14.9c7.6-0.1,15.7-1.1,22.7,2.6c12,5.7,18.7,18.3,22.3,30.5
		c2.8-4,5.1-8.4,8.7-11.8c6.3-6.2,15.6-8.6,24.2-8.4c8.9,0.5,16.4,5.9,23.7,10.5c3.6-6.1,6.7-13.5,13.6-16.7
		c5.1-2.8,11.2-1.8,16.7-1.9c9.6-0.3,19,2.2,27.9,5.6c18.9,8.3,36.3,21.9,45.7,40.6c6.2,11.4,10.4,24.3,9.9,37.4
		c0.3,8.5-1.6,16.9-4.2,24.9c-2.6,7.2-5.2,14.5-9.3,21c-10.2,16.9-23.8,32-40.2,43.2c-8.6,5.3-18.4,10.9-28.9,9
		c-7.3-1.4-11.6-7.9-17.2-12.1c-2.6,1.1-4.5,3.3-6.7,5c-6.1,5.3-14.9,7.7-22.7,5.4c-7.2-1.2-13.2-5.8-18.4-10.5
		c-3.8,5.6-9.1,10.7-16,12.1c-9.4,1.8-19.6-0.1-27.5-5.5c-3.7-2.5-6.8-5.8-9.7-9c-1.2,3.8-2.4,8-5.7,10.6c-4.8,3.7-11.2,4.5-17,4.5
		c-24.3,0.1-48.7-0.1-73,0c-6.1,0-12.6-0.4-18.1-3.3c-3.4-1.7-5.3-5.3-5.4-9c-0.5-13.1,0.5-26.2-0.8-39.2c-0.2-27.3-0.1-54.7-0.2-82
		c0-5,0.2-10-0.6-14.9c-1-8.3,0-17.3,4.7-24.5c4.6-5.4,12.3-6.5,19-7.1c9.7-0.2,19.5-0.2,29.2,0.1
		C86.4,101.4,95.9,103.6,104.4,108.1 M112.5,112.4c4.4,3.7,8.7,7.7,11.4,12.8c4.2,7.4,4.9,16.3,3.4,24.5
		c-2.9,14.1-12,26.1-22.4,35.7c-1,1.1-2.8,2.1-2.5,3.9c3.2,2.9,7,5.1,10.1,8.1C126,210,134.1,226.9,140,244
		c3.1-8.5,5.2-17.4,5.3-26.5c1.4,10.2,2.3,20.5,5.8,30.2c2.8,7.7,6.9,15.7,14.1,20c5.7,3.8,13.4,3.4,19.2,0.1
		c5.6-3.5,8.9-9.7,10.9-15.8c4.1-12.4,5.1-25.6,6.9-38.4c0.3,12.7-0.1,25.6,3.4,37.9c1.5,5.4,3.9,11,8.7,14.2
		c5.2,3.2,12.1,2.3,17.2-0.7c6.9-4.6,10.4-12.5,13-20.1c6.5-18.9,7-39.1,6.1-58.8c-1.4-16.6-5.7-33.2-14.1-47.7
		c-4.6-7.7-10.3-15.2-18.2-19.8c-7-4.1-16.3-4.5-23.2,0.1c-6.1,3.9-9.6,10.5-11.8,17.2c-5.9,17.8-5.3,36.8-8.2,55.1
		c-2.9-21.4-4.4-43-9.7-64c-2.2-8.9-6.5-18.2-15.1-22.4c-5.5-3.2-12.1-3-18.3-2.5C124.6,103,117.8,107.1,112.5,112.4 M251.7,107.5
		c-5.7,1.6-8.2,7.6-10.5,12.4c-0.9,2.4-2.9,5.3-0.8,7.6c12.6,17.9,18.3,39.7,19.6,61.3c1,9.8,0,19.6-0.4,29.4
		c-1,10.6-2.4,21.2-5.7,31.3c-0.8,2.7-2.2,5.2-2.6,8c2.2,4.8,5.2,9.6,9.8,12.5c3.7,2.4,8.3,1,12.2-0.3c12.6-4.9,22.8-14.2,31.8-24
		c13.9-16,25.7-34.6,30.2-55.5c3-12.9,0.6-26.5-5.5-38.1c-9.1-17.2-24.7-30.4-42.2-38.6C276.6,108.5,264,104.9,251.7,107.5
		 M40.8,112.3c-5.9,4-7.1,11.7-7.1,18.3c0,23,0.3,46.1,0.4,69.1c0.7,21.6,0.2,43.3,0.7,64.9c0,3,2.2,6.4,5.4,6.5
		c6.7,0.3,13.4,0,20.1,0.1c3-0.1,6.5,0.4,9.1-1.5c1.7-1.5,1.6-3.9,1.8-6c0-16.7,0-33.4,0-50c0-2.2,0.3-4.8,2.5-5.9
		c2.8-1.7,7,0.6,6.8,3.9c0.2,15.7,0,31.4,0.1,47.1c0.1,2.6,0.2,5.2,1.3,7.6c1.4,3.6,5.8,5,9.4,4.8c10.4,0,20.8,0.1,31.1-0.1
		c3.5-0.3,7.5-0.5,10-3.3c2.3-3.4,1.1-7.7,0.2-11.4c-3.4-12.2-7.4-24.4-13.4-35.6c-4.8-8.8-11.2-16.7-18.9-23
		c-3.6-3-7.8-5.2-11.7-7.8c2.5-3.5,6.3-5.7,9.4-8.6c7.7-6.6,14.4-15,16.6-25.1c2.4-14.1-3.9-29-15.3-37.5
		c-11.5-8.2-26.2-9.9-39.9-9.6C53.1,109.5,46.3,109,40.8,112.3z"/>
	<path class="st0" d="M67.7,137.3c3.3-1,7.7,0.9,8.1,4.6c0.4,6.2,0.2,12.5,0.1,18.7c-0.5,5-7.6,6.8-10.9,3.2c-2.4-2.4-1.9-6-2-9.1
		c0.2-4.3-0.4-8.6,0.4-12.9C63.8,139.7,65.6,137.8,67.7,137.3z"/>
	<path class="st0" d="M282.9,151.5c2.7-0.8,5.9-0.4,7.8,1.9c1.5,1.3,1.1,3.6,1.3,5.4c0,16.7,0,33.4,0,50c-0.1,1.8,0.1,4-1.3,5.4
		c-2.6,3.5-9.1,2.9-10.8-1.2c-1-2.6-0.8-5.5-0.8-8.3c0-15,0-30.1,0-45.1C279,156.5,279.7,152.9,282.9,151.5z"/>
	<path class="st0" d="M18.7,293.1c2.6-0.1,5.2-0.1,7.7,0c43.6,0.3,87.2,0,130.8,0.1c56.9-0.1,113.7,0.2,170.5-0.1
		c5-0.1,10-0.1,15,0.1c0.1,25.3,0.1,50.6,0,75.8c-6.4,0.3-12.9,0-19.3,0.1c-0.4,9.7,0.6,19.4-0.7,29c-1.7,0.5-3.4,1-5.1,1.4
		c0,5.1,0.1,10.1,0,15.2c0,3.1-3.9,4.3-6.3,3c-2-0.7-2.1-3.2-2.4-5c-0.1-12,0.1-24.1,0-36.1c-0.1-2.8,0.2-5.6-1-8.2
		c-1.1,5.6,0.1,11.4-0.7,17c-1.5,3.2-7.4,2.7-8.1-0.9c-0.4-5.1-0.2-10.3-0.5-15.4c-15.8-0.4-31.6,0-47.5-0.2
		c-9.3,0.2-18.6-0.3-27.9,0.4c-26-0.7-52.1-0.1-78.1-0.3c-4.7-0.1-9.4,0.2-14.2,0.3c-9.6-0.9-19.2-0.2-28.8-0.4
		c-22.5,0.1-44.9,0-67.4,0.1c-0.3,10.1,0.7,20.2-0.1,30.2c-1.7,0.7-3.3,1.2-5,1.8c0.1,5.6,0.1,11.2-0.1,16.8c-2.2,1.1-5,2.5-7.1,0.7
		c-1.8-1-1.5-3.1-1.6-4.8c-0.2-13.4-0.3-26.8-0.3-40.2c0.4-3.2-2.3-5.7-1.9-8.9C18.7,340.9,18.6,317,18.7,293.1 M123.1,299.3
		c-4.2,21.4-8.9,42.6-13.4,63.9c6.5,0.1,13.1,0.2,19.6,0c3.6-21.4,9.3-42.5,12.9-63.9C135.8,299.3,129.4,299.2,123.1,299.3
		 M160.2,304.8c-13.3,8.3-18.8,25.7-15.4,40.6c1.9,7.9,7.9,14.7,15.7,17c9.1,2.8,19.3,2.8,28.1-0.8c1.4-5.7,2.5-11.4,3.7-17.2
		c-4.8,1.9-9.9,3.6-15.1,3.2c-5.3,0.3-11-2.9-12.4-8.3c-0.7-4.8-0.6-9.9,1.7-14.2c2.9-6.8,10.5-10.5,17.7-10.1
		c4.9-0.3,9.6,1.2,14.1,2.7c0.8-5.8,2.4-11.5,3.5-17.2C188.1,296.9,172.7,297.3,160.2,304.8 M247.3,299.2
		c-6.9,9.9-14.1,19.5-20.9,29.4c1.3-9.9,4-19.6,5.8-29.4c-6.4-0.1-12.9-0.1-19.3,0c-4.3,21.4-9,42.7-13.4,64c6.4,0,12.8,0,19.2,0
		c2.1-10,4.1-20.1,6.5-30c3.2,10,6.6,20,9.8,30c7.7,0,15.5,0.2,23.2-0.1c-4.1-11.2-8.9-22.1-12.9-33.3c8.1-10.4,16.5-20.5,25-30.6
		C262.5,299.1,254.9,299.3,247.3,299.2 M286.8,299.1c-8.1,1.3-15.7,7-17.9,15.2c-0.8,5.7-0.9,12.2,3.1,16.8
		c4.2,4.9,10.7,6.5,15.8,10.2c2.7,1.9,1.4,5.2,0.7,7.8c-8.1,2.9-16.6-0.6-23.4-5.1c-0.8,5.4-2.6,10.5-2.9,16
		c9.3,3.8,19.8,5.7,29.8,3.4c7.8-1.3,15.6-6.6,17.4-14.7c0.7-4.8,1-10.2-1.7-14.5c-3-5.6-9.3-8.1-14.5-11.3
		c-2.2-1.3-4.9-3.2-4.4-6.1c0.3-2.8,3.1-3.9,5.5-4.3c6.1-0.3,11.9,1.9,17.2,4.6c0.9-5.2,2.5-10.2,2.7-15.5
		C305.3,299.1,296,297,286.8,299.1 M60.1,299.3c-4.3,21.4-9,42.6-13.4,64c6.4,0.1,12.7,0,19.1,0c2.3-10,4.3-20.1,6.5-30.1
		c3.3,10,6.6,20,9.8,30.1c7.8,0,15.5,0.1,23.3-0.1c-4.1-11.2-8.8-22.2-13-33.4c8.2-10.3,16.6-20.3,24.9-30.5
		c-7.7-0.2-15.3-0.1-22.9-0.1c-6.8,9.8-13.6,19.6-20.8,29c1.6-9.7,4.2-19.3,5.8-29.1C72.9,299.3,66.5,299.2,60.1,299.3z"/>
</g>
<g id="_x23_fc0101ff">
	<path class="st1" d="M134.2,25.7c10.5-2.8,21.2-4.7,32.1-4.7c8.7-0.1,17.3-0.1,26,0.1c10.7,0.4,21.2,2.9,31.6,5.3
		c15.8,4.8,31.3,10.7,45.3,19.6c38,22.6,66.6,60.2,78.8,102.6c3.6,12.1,5.5,24.6,6.7,37.1c-0.1,11,0.7,22.1-0.9,33
		c-3,26.3-12.3,51.7-26,74.3c-56.8,0.4-113.7,0-170.5,0.1c-43.6-0.1-87.2,0.1-130.8-0.1c-1.7-3.4-3.6-6.6-5.4-9.9
		c-11.9-22-19.4-46.5-21.1-71.5c-0.1-9.3-0.3-18.7,0.1-28c3.6-48.2,28.2-94.4,66.1-124.4c2.6-1.3,5.1-2.9,7.2-5
		C77,50.9,81.3,48,86,45.8c-0.2-0.7-0.5-2.2-0.6-2.9c3.2,6.7,10.8,9.2,17.5,10.8c11.2,2.4,22.7,3.9,34.1,4.5
		c16.4,1.9,32.9,0.9,49.3,1c16-1.6,32.2-1.7,47.8-6.1c5.3-1.6,11.2-3.7,14.3-8.7c0.9-1.5,0.5-3.4-0.6-4.8c-2.5-3.6-6.5-5.9-10.6-7.3
		c-10.3-3-20.9-4.4-31.6-5.4c-18.7-2.3-37.5-1.5-56.3-1.5C144.2,25.5,139.2,25,134.2,25.7 M78.7,67.1c-5.4,4.6-11.2,8.6-16.4,13.3
		c0.5,1.6,1.1,3.2,1.9,4.7c6.4-1.6,10.7-6.8,15.9-10.5c2.7-2.1,5.8-3.9,7.7-6.7c-0.3-1.5-0.7-3-1.1-4.4C83.8,64.1,80.9,65,78.7,67.1
		 M104.4,108.1c-8.4-4.6-17.9-6.7-27.4-7.8c-9.7-0.3-19.5-0.3-29.2-0.1c-6.7,0.6-14.3,1.7-19,7.1c-4.7,7.1-5.7,16.1-4.7,24.5
		c0.7,4.9,0.5,9.9,0.6,14.9c0.1,27.3,0.1,54.7,0.2,82c1.4,13,0.3,26.2,0.8,39.2c0.1,3.7,2,7.3,5.4,9c5.5,2.9,12,3.3,18.1,3.3
		c24.3-0.1,48.7,0.1,73,0c5.9,0,12.3-0.8,17-4.5c3.3-2.6,4.6-6.7,5.7-10.6c3,3.3,6,6.5,9.7,9c7.9,5.4,18.1,7.3,27.5,5.5
		c6.9-1.4,12.2-6.5,16-12.1c5.3,4.8,11.2,9.4,18.4,10.5c7.9,2.3,16.6-0.1,22.7-5.4c2.2-1.7,4.1-3.9,6.7-5
		c5.6,4.2,9.9,10.7,17.2,12.1c10.5,1.9,20.3-3.7,28.9-9c16.4-11.2,29.9-26.3,40.2-43.2c4-6.5,6.7-13.8,9.3-21
		c2.6-8,4.6-16.4,4.2-24.9c0.5-13.1-3.7-26-9.9-37.4c-9.4-18.7-26.8-32.3-45.7-40.6c-8.9-3.4-18.4-5.9-27.9-5.6
		c-5.6,0.2-11.6-0.8-16.7,1.9c-6.9,3.1-10,10.5-13.6,16.7c-7.3-4.6-14.8-10-23.7-10.5c-8.7-0.3-17.9,2.2-24.2,8.4
		c-3.6,3.4-5.9,7.8-8.7,11.8c-3.6-12.3-10.2-24.8-22.3-30.5c-7-3.7-15.1-2.7-22.7-2.6C120.1,94.4,111.3,100.7,104.4,108.1z"/>
	<path class="st1" d="M124.1,36.5c6.1-0.4,12.1-1.4,18.2-1.4c16.3-0.2,32.7-0.2,49,0c16.8,0.6,33.6,2.7,50,6.7c-3,1.3-6,2.6-9.1,3.3
		c-14.8,2.8-29.9,3.8-44.9,5c-31.4,0.6-63.3,0.5-93.9-7.4C103.1,38.7,113.8,38.1,124.1,36.5z"/>
	<path class="st1" d="M131.1,369.5c4.7-0.1,9.4-0.4,14.2-0.3c26,0.2,52.1-0.4,78.1,0.3c-9.3,3.3-19.3,4.3-29,5.7
		c-11.4,0.5-22.8,0.4-34.1,0.1C150.4,373.8,140.4,372.8,131.1,369.5z"/>
</g>

<style type="text/css">


       html.light .st0 {
            fill: black;
        }
        html.dark .st0 {
            fill: white;
        }


	.st1{fill:#FC0101;}
</style>

</svg>
